<?xml version="1.0" encoding="utf-8"?>
<!-- Generator: Adobe Illustrator 27.5.0, SVG Export Plug-In . SVG Version: 6.00 Build 0)  -->
<svg version="1.1" xmlns="http://www.w3.org/2000/svg" xmlns:xlink="http://www.w3.org/1999/xlink" x="0px" y="0px"
	 viewBox="0 0 2200 2200" style="enable-background:new 0 0 2200 2200;" xml:space="preserve">
<g id="background">
	<rect y="0" style="fill:#FFFFFF;" width="2200" height="2200"/>
</g>
<g id="Objects">
	<g>
		<g>
			<path style="fill:#FFB93E;" d="M1873.935,1035.566c0,427.433-346.502,773.935-773.935,773.935
				c-51.596,0-102.009-5.052-150.78-14.687c-44.306-8.736-87.253-21.273-128.491-37.241c-31.221-12.078-61.465-26.13-90.576-42
				c-113.481-61.846-209.773-151.289-279.858-259.297c-17.912-27.606-34.123-56.433-48.459-86.325
				c-31.172-64.964-53.55-134.96-65.569-208.435c-6.713-40.993-10.202-83.061-10.202-125.95
				c0-427.433,346.502-773.935,773.935-773.935c42.889,0,84.957,3.489,125.95,10.202c73.475,12.019,143.471,34.397,208.435,65.569
				c29.892,14.335,58.719,30.547,86.325,48.459c108.009,70.084,197.451,166.376,259.297,279.858
				c15.87,29.11,29.922,59.355,42,90.576c15.967,41.237,28.505,84.185,37.241,128.491
				C1868.883,933.557,1873.935,983.971,1873.935,1035.566z"/>
			<circle style="fill:#FFD85C;" cx="1100" cy="1035.566" r="522.797"/>
			<path style="opacity:0.24;fill:#FFFFFF;" d="M1434.385,337.403L401.837,1369.951c-31.172-64.964-53.55-134.96-65.569-208.435
				l889.683-889.683C1299.425,283.853,1369.421,306.23,1434.385,337.403z"/>
			<path style="opacity:0.24;fill:#FFFFFF;" d="M1780.007,665.719L730.153,1715.573
				c-113.481-61.846-209.773-151.289-279.858-259.297L1520.71,385.862C1628.719,455.946,1718.161,552.238,1780.007,665.719z"/>
			<path style="opacity:0.24;fill:#FFFFFF;" d="M1859.248,884.786L949.22,1794.814c-44.306-8.736-87.253-21.273-128.491-37.241
				L1822.007,756.295C1837.974,797.532,1850.511,840.48,1859.248,884.786z"/>
			<path style="fill:#38332B;" d="M1100,1868.132c-112.37,0-221.409-22.021-324.09-65.451
				c-99.149-41.937-188.18-101.96-264.623-178.402c-76.442-76.443-136.465-165.474-178.402-264.623
				c-43.43-102.681-65.451-211.72-65.451-324.09c0-112.37,22.021-221.409,65.451-324.09
				c41.936-99.149,101.959-188.18,178.402-264.623c76.443-76.442,165.474-136.465,264.623-178.402
				C878.591,225.021,987.63,203,1100,203s221.409,22.021,324.09,65.451c99.149,41.936,188.18,101.959,264.623,178.402
				c76.442,76.443,136.465,165.474,178.402,264.623c43.43,102.681,65.451,211.721,65.451,324.09
				c0,112.37-22.021,221.409-65.451,324.09c-41.937,99.149-101.96,188.18-178.402,264.623
				c-76.443,76.442-165.474,136.465-264.623,178.402C1321.409,1846.111,1212.37,1868.132,1100,1868.132z M1100,320.263
				c-96.591,0-190.262,18.904-278.411,56.188c-85.17,36.024-161.674,87.608-227.386,153.32
				c-65.71,65.711-117.295,142.215-153.319,227.386c-37.284,88.148-56.188,181.819-56.188,278.41s18.904,190.262,56.188,278.411
				c36.024,85.17,87.609,161.674,153.319,227.386c65.711,65.71,142.216,117.295,227.386,153.319
				c88.148,37.284,181.819,56.188,278.411,56.188s190.262-18.904,278.411-56.188c85.17-36.023,161.674-87.608,227.386-153.319
				c65.71-65.711,117.295-142.216,153.319-227.386c37.284-88.148,56.188-181.819,56.188-278.411s-18.904-190.262-56.188-278.41
				c-36.023-85.171-87.608-161.674-153.319-227.386c-65.711-65.711-142.216-117.295-227.386-153.32
				C1290.262,339.167,1196.591,320.263,1100,320.263z"/>
			<path style="fill:#38332B;" d="M1100,1602.337c-76.494,0-150.724-14.991-220.626-44.558
				c-67.496-28.548-128.104-69.408-180.141-121.445c-52.037-52.037-92.897-112.645-121.445-180.141
				c-29.567-69.902-44.558-144.133-44.558-220.626c0-76.494,14.991-150.724,44.558-220.626
				c28.548-67.496,69.408-128.104,121.445-180.141c52.037-52.037,112.645-92.897,180.141-121.445
				c69.902-29.566,144.133-44.558,220.626-44.558s150.724,14.991,220.626,44.558c67.496,28.548,128.104,69.409,180.141,121.445
				c52.037,52.037,92.897,112.646,121.445,180.141c29.567,69.902,44.558,144.132,44.558,220.626
				c0,76.494-14.991,150.724-44.558,220.626c-28.548,67.496-69.408,128.104-121.445,180.141
				c-52.037,52.037-112.645,92.897-180.141,121.445C1250.724,1587.346,1176.494,1602.337,1100,1602.337z M1100,556.743
				c-64.661,0-127.363,12.654-186.367,37.61c-57.012,24.114-108.224,58.645-152.213,102.634
				c-43.989,43.989-78.52,95.201-102.634,152.213c-24.957,59.004-37.61,121.706-37.61,186.366
				c0,64.661,12.654,127.363,37.61,186.367c24.114,57.012,58.645,108.224,102.634,152.213
				c43.989,43.989,95.201,78.52,152.213,102.634c59.004,24.957,121.706,37.61,186.367,37.61s127.363-12.654,186.367-37.61
				c57.012-24.114,108.224-58.645,152.213-102.634c43.989-43.989,78.52-95.201,102.634-152.213
				c24.957-59.004,37.61-121.706,37.61-186.367c0-64.66-12.654-127.363-37.61-186.366
				c-24.114-57.012-58.645-108.224-102.634-152.213c-43.989-43.988-95.201-78.519-152.213-102.634
				C1227.363,569.397,1164.661,556.743,1100,556.743z"/>
			<path style="fill:#38332B;" d="M1099.225,1355.107c-15.774,0-28.608-12.833-28.608-28.608v-32.171
				c-21.949-2.542-42.511-7.848-61.252-15.816c-27.932-11.883-50.834-29.102-68.073-51.179
				c-11.245-14.414-19.478-30.695-24.471-48.394c-2.872-10.259-0.837-21.064,5.579-29.669c6.554-8.791,16.588-13.936,27.53-14.116
				l1.906-0.005c15.543,0,29.014,10.245,33.52,25.493c2.92,9.843,7.508,19.21,13.635,27.83
				c9.058,12.669,22.052,22.893,38.599,30.362c9.565,4.319,20.635,7.451,33.027,9.353v-169.563l-2.005-0.479
				c-47.164-11.034-83.157-27.539-106.927-49.043c-24.829-22.459-37.418-52.941-37.418-90.599v-0.328
				c0-28.915,7.84-54.525,23.304-76.12c15.268-21.275,36.418-37.992,62.869-49.695c18.058-7.992,38.257-13.267,60.176-15.725
				v-32.001c0-7.588,2.951-14.758,8.307-20.188l0.113-0.112c5.43-5.357,12.599-8.308,20.188-8.308
				c15.751,0,28.567,12.834,28.567,28.608v32.049c21.149,2.508,40.854,7.897,58.709,16.066
				c25.923,11.887,47.204,28.699,63.259,49.973c10.063,13.327,17.504,28.165,22.114,44.1c2.997,10.286,1.109,21.209-5.188,29.946
				c-6.334,8.788-16.169,14.066-26.986,14.48l-0.224,0.009h-0.719c-0.371,0.012-0.74,0.018-1.11,0.018
				c-15.595,0-29.332-10.378-33.407-25.237c-2.767-9.971-7.333-19.064-13.561-26.991c-9.397-12.01-21.906-21.465-37.192-28.12
				c-7.888-3.435-16.493-6.023-25.695-7.733v159.148l7.317,1.728c48.493,11.507,85.598,28.078,110.295,49.253
				c25.914,22.257,39.049,53.635,39.049,93.27v0.328c0,31.65-8.482,59.052-25.209,81.446c-16.49,22.119-38.939,39.186-66.716,50.719
				c-19.718,8.213-41.45,13.503-64.734,15.768v31.647c0,7.59-2.951,14.761-8.309,20.19l-0.111,0.11
				C1113.942,1352.157,1106.787,1355.107,1099.225,1355.107z M1127.792,1229.041c15.17-1.643,28.323-4.854,39.225-9.58
				c16.058-6.933,28.02-16.524,35.57-28.514c7.774-12.287,11.546-25.862,11.546-41.521v-0.37c0-19.337-5.927-34.477-18.12-46.289
				c-12.175-11.76-35.116-21.993-68.221-30.435V1229.041z M1070.617,842.966c-10.899,1.822-20.73,4.75-29.341,8.747
				c-15.429,7.133-27.234,16.497-35.103,27.839c-7.797,11.239-11.586,23.173-11.586,36.486v0.329c0,17.718,5.883,32.13,17.987,44.06
				c11.299,11.105,30.798,20.55,58.044,28.128V842.966z"/>
		</g>
		<ellipse style="fill:#DDDAD9;" cx="1100" cy="1972.647" rx="625.566" ry="24.353"/>
	</g>
</g>
</svg>
